<svg width="21" height="21" viewBox="0 0 21 21" fill="none" xmlns="http://www.w3.org/2000/svg">
<g clip-path="url(#clip0_0_525)">
<path fill-rule="evenodd" clip-rule="evenodd" d="M18.3181 0.420166H2.60386C1.42039 0.420166 0.460999 1.37956 0.460999 2.56302V18.2773C0.460999 19.4608 1.42039 20.4202 2.60386 20.4202H8.73109V13.6206H5.91859V10.4202H8.73109V7.98088C8.73109 5.20633 10.3829 3.67374 12.9128 3.67374C14.1244 3.67374 15.3914 3.88981 15.3914 3.88981V6.61302H13.9954C12.6199 6.61302 12.1909 7.46659 12.1909 8.34204V10.4202H15.2614L14.7704 13.6206H12.1909V20.4202H18.3181C19.5016 20.4202 20.461 19.4608 20.461 18.2773V2.56302C20.461 1.37956 19.5016 0.420166 18.3181 0.420166Z" fill="#00F3FF"/>
</g>
<defs>
<clipPath id="clip0_0_525">
<rect width="20" height="20" fill="white" transform="translate(0.460999 0.420166)"/>
</clipPath>
</defs>
</svg>
