<svg width="21" height="21" viewBox="0 0 21 21" fill="none" xmlns="http://www.w3.org/2000/svg">
<g clip-path="url(#clip0_0_531)">
<path d="M18.4797 0.420166H3.33237C2.54666 0.420166 0.908264 2.06785 0.908264 2.86255V17.9778C0.908264 18.7725 2.54666 20.4202 3.33237 20.4202H18.4797C19.2654 20.4202 20.9083 18.7725 20.9083 17.9778V2.86255C20.9083 2.06785 19.2654 0.420166 18.4797 0.420166ZM6.9529 17.5627H3.98862V8.0188H6.95737V17.5627H6.9529ZM3.75201 4.99634C3.75201 4.04994 4.51987 3.27759 5.47076 3.27759C6.41719 3.27759 7.18951 4.04994 7.18951 4.99634C7.18951 5.94724 6.42166 6.71509 5.47076 6.71509C4.51987 6.71509 3.75201 5.94274 3.75201 4.99634ZM15.1002 17.5627V12.9202C15.1002 11.8131 15.0779 10.3889 13.5601 10.3889C12.0154 10.3889 11.7788 11.5946 11.7788 12.8401V17.5627H8.81451V8.0188H11.6583V9.32153H11.6984C12.0958 8.57153 13.0645 7.78149 14.5065 7.78149C17.5065 7.78149 18.0645 9.7599 18.0645 12.3313V17.5627H15.1002Z" fill="#00F3FF"/>
</g>
<defs>
<clipPath id="clip0_0_531">
<rect width="20" height="20" fill="white" transform="translate(0.908264 0.420166)"/>
</clipPath>
</defs>
</svg>
