<svg width="23" height="20" viewBox="0 0 23 20" fill="none" xmlns="http://www.w3.org/2000/svg">
<g clip-path="url(#clip0_0_519)">
<path fill-rule="evenodd" clip-rule="evenodd" d="M20.525 5.1553C20.5395 5.36311 20.5395 5.57096 20.5395 5.77876C20.5395 12.117 15.822 19.4202 7.19975 19.4202C4.5434 19.4202 2.07578 18.6334 6.10352e-05 17.2678C0.377477 17.3123 0.740328 17.3272 1.13227 17.3272C3.32407 17.3272 5.34175 16.5702 6.95298 15.2788C4.89178 15.2342 3.16443 13.8538 2.56928 11.9538C2.85962 11.9983 3.1499 12.028 3.45476 12.028C3.8757 12.028 4.29668 11.9686 4.68857 11.8647C2.54028 11.4194 0.929014 9.48969 0.929014 7.15922V7.09987C1.55316 7.45612 2.27899 7.67877 3.04826 7.70843C1.78541 6.84747 0.958056 5.37796 0.958056 3.71545C0.958056 2.82484 1.19026 2.00843 1.59672 1.29593C3.90469 4.2053 7.37391 6.10527 11.264 6.31311C11.1915 5.95686 11.1479 5.58581 11.1479 5.2147C11.1479 2.57249 13.2381 0.420166 15.8364 0.420166C17.1863 0.420166 18.4056 0.999071 19.2621 1.93423C20.3217 1.72643 21.3377 1.32562 22.2377 0.776419C21.8893 1.88972 21.1491 2.82488 20.1765 3.41859C21.1201 3.31474 22.0345 3.04749 22.8764 2.67643C22.2378 3.62639 21.4394 4.47245 20.525 5.1553Z" fill="#00F3FF"/>
</g>
<defs>
<clipPath id="clip0_0_519">
<rect width="23" height="19" fill="white" transform="translate(6.10352e-05 0.420166)"/>
</clipPath>
</defs>
</svg>
